<svg width="179" height="64" viewBox="0 0 179 64" fill="none" xmlns="http://www.w3.org/2000/svg">
<path d="M1.51308 0C1.11192 0.000516123 0.727322 0.18742 0.443661 0.519711C0.16 0.852001 0.00044059 1.30253 0 1.77246V62.2275C0.00044059 62.6975 0.16 63.148 0.443661 63.4803C0.727322 63.8126 1.11192 63.9995 1.51308 64H177.487C177.888 63.9995 178.273 63.8126 178.556 63.4803C178.84 63.148 179 62.6975 179 62.2275V1.77246C179 1.30253 178.84 0.852001 178.556 0.519711C178.273 0.18742 177.888 0.000516123 177.487 0H1.51308Z" fill="#8A919E"/>
<path d="M5 59H174V5H5V59Z" fill="white"/>
<path d="M32.54 36.84H32.46C32.34 37.52 31.96 38.0933 31.32 38.56C30.6933 39.0133 29.8533 39.24 28.8 39.24C27.9733 39.24 27.2067 39.0867 26.5 38.78C25.8067 38.4733 25.2 38.02 24.68 37.42C24.1733 36.8067 23.7733 36.0533 23.48 35.16C23.1867 34.2667 23.04 33.2333 23.04 32.06C23.04 30.8867 23.1867 29.8533 23.48 28.96C23.7867 28.0533 24.2133 27.2933 24.76 26.68C25.3067 26.0667 25.96 25.6 26.72 25.28C27.48 24.96 28.3267 24.8 29.26 24.8C30.5133 24.8 31.58 25.0733 32.46 25.62C33.34 26.1667 34.0333 26.9533 34.54 27.98L32.4 29.24C32.1467 28.64 31.7667 28.14 31.26 27.74C30.7667 27.34 30.1 27.14 29.26 27.14C28.22 27.14 27.3867 27.46 26.76 28.1C26.1467 28.7267 25.84 29.66 25.84 30.9V33.14C25.84 34.3667 26.1533 35.3 26.78 35.94C27.4067 36.58 28.2467 36.9 29.3 36.9C29.7133 36.9 30.1 36.8533 30.46 36.76C30.82 36.6533 31.1333 36.5 31.4 36.3C31.6667 36.1 31.88 35.8533 32.04 35.56C32.2 35.2667 32.28 34.92 32.28 34.52V33.62H29.54V31.4H34.82V39H32.54V36.84ZM41.9383 39.24C41.1649 39.24 40.4716 39.1133 39.8583 38.86C39.2583 38.5933 38.7449 38.2267 38.3183 37.76C37.9049 37.28 37.5849 36.7067 37.3583 36.04C37.1316 35.36 37.0183 34.6 37.0183 33.76C37.0183 32.9333 37.1249 32.1867 37.3383 31.52C37.5649 30.8533 37.8849 30.2867 38.2983 29.82C38.7116 29.34 39.2183 28.9733 39.8183 28.72C40.4183 28.4533 41.0983 28.32 41.8583 28.32C42.6716 28.32 43.3783 28.46 43.9783 28.74C44.5783 29.02 45.0716 29.4 45.4583 29.88C45.8449 30.36 46.1316 30.92 46.3183 31.56C46.5183 32.1867 46.6183 32.86 46.6183 33.58V34.42H39.6783V34.68C39.6783 35.44 39.8916 36.0533 40.3183 36.52C40.7449 36.9733 41.3783 37.2 42.2183 37.2C42.8583 37.2 43.3783 37.0667 43.7783 36.8C44.1916 36.5333 44.5583 36.1933 44.8783 35.78L46.2583 37.32C45.8316 37.92 45.2449 38.3933 44.4983 38.74C43.7649 39.0733 42.9116 39.24 41.9383 39.24ZM41.8983 30.24C41.2183 30.24 40.6783 30.4667 40.2783 30.92C39.8783 31.3733 39.6783 31.96 39.6783 32.68V32.84H43.9583V32.66C43.9583 31.94 43.7783 31.36 43.4183 30.92C43.0716 30.4667 42.5649 30.24 41.8983 30.24ZM52.1306 39C51.2506 39 50.5773 38.7733 50.1106 38.32C49.6573 37.8533 49.4306 37.1933 49.4306 36.34V30.6H47.8906V28.56H48.6906C49.0773 28.56 49.3373 28.4733 49.4706 28.3C49.6173 28.1133 49.6906 27.84 49.6906 27.48V25.7H51.9906V28.56H54.1306V30.6H51.9906V36.96H53.9706V39H52.1306ZM64.4977 39.24C63.4977 39.24 62.6577 39.0733 61.9777 38.74C61.2977 38.3933 60.6977 37.92 60.1777 37.32L61.7377 35.8C62.1243 36.24 62.5443 36.5867 62.9977 36.84C63.4643 37.0933 63.9977 37.22 64.5977 37.22C65.211 37.22 65.651 37.1133 65.9177 36.9C66.1977 36.6867 66.3377 36.3933 66.3377 36.02C66.3377 35.7133 66.2377 35.4733 66.0377 35.3C65.851 35.1133 65.5243 34.9867 65.0577 34.92L64.0177 34.78C62.8843 34.6333 62.0177 34.3133 61.4177 33.82C60.831 33.3133 60.5377 32.58 60.5377 31.62C60.5377 31.1133 60.631 30.66 60.8177 30.26C61.0043 29.8467 61.271 29.5 61.6177 29.22C61.9643 28.9267 62.3777 28.7067 62.8577 28.56C63.351 28.4 63.8977 28.32 64.4977 28.32C65.0043 28.32 65.451 28.36 65.8377 28.44C66.2377 28.5067 66.5977 28.6133 66.9177 28.76C67.2377 28.8933 67.531 29.0667 67.7977 29.28C68.0643 29.48 68.3243 29.7067 68.5777 29.96L67.0777 31.46C66.771 31.14 66.4043 30.8733 65.9777 30.66C65.551 30.4467 65.0843 30.34 64.5777 30.34C64.0177 30.34 63.611 30.44 63.3577 30.64C63.1177 30.84 62.9977 31.1 62.9977 31.42C62.9977 31.7667 63.0977 32.0333 63.2977 32.22C63.511 32.3933 63.8643 32.52 64.3577 32.6L65.4177 32.74C67.671 33.06 68.7977 34.0867 68.7977 35.82C68.7977 36.3267 68.691 36.7933 68.4777 37.22C68.2777 37.6333 67.991 37.9933 67.6177 38.3C67.2443 38.5933 66.791 38.8267 66.2577 39C65.7377 39.16 65.151 39.24 64.4977 39.24ZM74.1619 39C73.2819 39 72.6085 38.7733 72.1419 38.32C71.6885 37.8533 71.4619 37.1933 71.4619 36.34V30.6H69.9219V28.56H70.7219C71.1085 28.56 71.3685 28.4733 71.5019 28.3C71.6485 28.1133 71.7219 27.84 71.7219 27.48V25.7H74.0219V28.56H76.1619V30.6H74.0219V36.96H76.0019V39H74.1619ZM86.0623 39C85.5023 39 85.0557 38.84 84.7223 38.52C84.4023 38.1867 84.2023 37.7467 84.1223 37.2H84.0023C83.829 37.88 83.4757 38.3933 82.9423 38.74C82.409 39.0733 81.749 39.24 80.9623 39.24C79.8957 39.24 79.0757 38.96 78.5023 38.4C77.929 37.84 77.6423 37.0933 77.6423 36.16C77.6423 35.08 78.029 34.28 78.8023 33.76C79.5757 33.2267 80.6757 32.96 82.1023 32.96H83.8823V32.2C83.8823 31.6133 83.729 31.16 83.4223 30.84C83.1157 30.52 82.6223 30.36 81.9423 30.36C81.3423 30.36 80.8557 30.4933 80.4823 30.76C80.1223 31.0133 79.8157 31.32 79.5623 31.68L78.0423 30.32C78.429 29.72 78.9423 29.24 79.5823 28.88C80.2223 28.5067 81.069 28.32 82.1223 28.32C83.5357 28.32 84.609 28.64 85.3423 29.28C86.0757 29.92 86.4423 30.84 86.4423 32.04V36.96H87.4823V39H86.0623ZM81.8223 37.38C82.3957 37.38 82.8823 37.2533 83.2823 37C83.6823 36.7467 83.8823 36.3733 83.8823 35.88V34.5H82.2423C80.909 34.5 80.2423 34.9267 80.2423 35.78V36.12C80.2423 36.5467 80.3757 36.8667 80.6423 37.08C80.9223 37.28 81.3157 37.38 81.8223 37.38ZM89.5542 39V28.56H92.1142V30.72H92.2142C92.2809 30.44 92.3809 30.1733 92.5142 29.92C92.6609 29.6533 92.8476 29.42 93.0742 29.22C93.3009 29.02 93.5676 28.86 93.8742 28.74C94.1942 28.62 94.5609 28.56 94.9742 28.56H95.5342V30.98H94.7342C93.8676 30.98 93.2142 31.1067 92.7742 31.36C92.3342 31.6133 92.1142 32.0267 92.1142 32.6V39H89.5542ZM100.744 39C99.8639 39 99.1906 38.7733 98.7239 38.32C98.2706 37.8533 98.0439 37.1933 98.0439 36.34V30.6H96.5039V28.56H97.3039C97.6906 28.56 97.9506 28.4733 98.0839 28.3C98.2306 28.1133 98.3039 27.84 98.3039 27.48V25.7H100.604V28.56H102.744V30.6H100.604V36.96H102.584V39H100.744ZM109.106 39.24C108.333 39.24 107.64 39.1133 107.026 38.86C106.426 38.5933 105.913 38.2267 105.486 37.76C105.073 37.28 104.753 36.7067 104.526 36.04C104.3 35.36 104.186 34.6 104.186 33.76C104.186 32.9333 104.293 32.1867 104.506 31.52C104.733 30.8533 105.053 30.2867 105.466 29.82C105.88 29.34 106.386 28.9733 106.986 28.72C107.586 28.4533 108.266 28.32 109.026 28.32C109.84 28.32 110.546 28.46 111.146 28.74C111.746 29.02 112.24 29.4 112.626 29.88C113.013 30.36 113.3 30.92 113.486 31.56C113.686 32.1867 113.786 32.86 113.786 33.58V34.42H106.846V34.68C106.846 35.44 107.06 36.0533 107.486 36.52C107.913 36.9733 108.546 37.2 109.386 37.2C110.026 37.2 110.546 37.0667 110.946 36.8C111.36 36.5333 111.726 36.1933 112.046 35.78L113.426 37.32C113 37.92 112.413 38.3933 111.666 38.74C110.933 39.0733 110.08 39.24 109.106 39.24ZM109.066 30.24C108.386 30.24 107.846 30.4667 107.446 30.92C107.046 31.3733 106.846 31.96 106.846 32.68V32.84H111.126V32.66C111.126 31.94 110.946 31.36 110.586 30.92C110.24 30.4667 109.733 30.24 109.066 30.24ZM122.519 37.26H122.419C122.232 37.86 121.879 38.34 121.359 38.7C120.839 39.06 120.232 39.24 119.539 39.24C118.219 39.24 117.205 38.7667 116.499 37.82C115.805 36.8733 115.459 35.52 115.459 33.76C115.459 32.0133 115.805 30.6733 116.499 29.74C117.205 28.7933 118.219 28.32 119.539 28.32C120.232 28.32 120.839 28.5 121.359 28.86C121.879 29.2067 122.232 29.68 122.419 30.28H122.519V24.2H125.079V39H122.519V37.26ZM120.359 37.12C120.972 37.12 121.485 36.9733 121.899 36.68C122.312 36.3867 122.519 35.9667 122.519 35.42V32.1C122.519 31.5933 122.312 31.1867 121.899 30.88C121.485 30.5733 120.972 30.42 120.359 30.42C119.692 30.42 119.152 30.6467 118.739 31.1C118.339 31.54 118.139 32.1333 118.139 32.88V34.68C118.139 35.4267 118.339 36.02 118.739 36.46C119.152 36.9 119.692 37.12 120.359 37.12Z" fill="black"/>
<path d="M149.959 27.3738C149.569 26.9833 149.569 26.3501 149.959 25.9596C150.35 25.5691 150.983 25.5691 151.374 25.9596L156.707 31.2929C157.097 31.6835 157.097 32.3166 156.707 32.7071L151.374 38.0404C150.983 38.431 150.35 38.431 149.959 38.0404C149.569 37.6499 149.569 37.0168 149.959 36.6263L153.586 33H140.667C140.114 33 139.667 32.5523 139.667 32C139.667 31.4478 140.114 31 140.667 31H153.586L149.959 27.3738Z" fill="black"/>
</svg>
