<svg width="735" height="645" viewBox="0 0 735 645" fill="none" xmlns="http://www.w3.org/2000/svg">
<g clip-path="url(#clip0_80_404)" filter="url(#filter0_d_80_404)">
<circle cx="331.5" cy="274.5" r="247.5" fill="#0E0E11"/>
<path d="M47.9722 0C47.2501 0.000793623 46.5578 0.288189 46.0471 0.799139C45.5365 1.31009 45.2493 2.00286 45.2485 2.72545V95.6849C45.2493 96.4075 45.5365 97.1003 46.0471 97.6112C46.5578 98.1222 47.2501 98.4096 47.9722 98.4104H364.739C365.461 98.4096 366.153 98.1222 366.664 97.6112C367.175 97.1003 367.462 96.4075 367.463 95.6849V2.72545C367.462 2.00286 367.175 1.31009 366.664 0.799139C366.153 0.288189 365.461 0.000793623 364.739 0H47.9722Z" fill="#E6E6E6"/>
<path d="M52.0728 91.5812H360.636V6.8291H52.0728V91.5812Z" fill="white"/>
<path d="M321.688 73.9982C321.095 73.9982 320.508 74.1149 319.961 74.3418C319.414 74.5687 318.916 74.9013 318.497 75.3206C318.078 75.7398 317.746 76.2375 317.519 76.7853C317.292 77.3331 317.176 77.9202 317.176 78.5131C317.176 79.106 317.292 79.6931 317.519 80.2409C317.746 80.7887 318.078 81.2864 318.497 81.7057C318.916 82.1249 319.414 82.4575 319.961 82.6844C320.508 82.9113 321.095 83.0281 321.688 83.0281H339.735C340.327 83.0281 340.914 82.9113 341.461 82.6844C342.009 82.4575 342.506 82.1249 342.925 81.7057C343.344 81.2864 343.676 80.7887 343.903 80.2409C344.13 79.6931 344.247 79.106 344.247 78.5131C344.247 77.9202 344.13 77.3331 343.903 76.7853C343.676 76.2375 343.344 75.7398 342.925 75.3206C342.506 74.9013 342.009 74.5687 341.461 74.3418C340.914 74.1149 340.327 73.9982 339.735 73.9982H321.688Z" fill="#051537"/>
<path d="M344.247 65.2412H135.915V66.4295H344.247V65.2412Z" fill="#E6E6E6"/>
<path d="M92.3676 75.5013C106.881 75.5013 118.646 63.7282 118.646 49.2052C118.646 34.6822 106.881 22.9091 92.3676 22.9091C77.8542 22.9091 66.0889 34.6822 66.0889 49.2052C66.0889 63.7282 77.8542 75.5013 92.3676 75.5013Z" fill="#E6E6E6"/>
<path d="M136.247 58.6078L135.588 57.6194L157.237 43.1775L172.082 50.3085L193.434 36.6572L193.723 36.7802L235.911 54.789L269.737 38.1614L302.583 51.4868L343.856 59.8821L344.643 60.7716L302.819 52.8651L269.783 39.4616L235.944 56.0942L193.544 37.9955L172.162 51.6648L157.331 44.5408L136.247 58.6078Z" fill="#3F3D56"/>
<path d="M139.773 74.6209C138.761 74.6372 137.795 75.051 137.085 75.7732C136.375 76.4954 135.977 77.468 135.977 78.4812C135.977 79.4944 136.375 80.467 137.085 81.1891C137.795 81.9113 138.761 82.3252 139.773 82.3415H180.134C181.156 82.3566 182.142 81.965 182.876 81.2528C183.61 80.5406 184.032 79.566 184.048 78.543C184.065 77.5201 183.675 76.5324 182.964 75.797C182.253 75.0616 181.28 74.6386 180.257 74.6209C180.216 74.6202 180.175 74.6202 180.134 74.6209H139.773Z" fill="#E6E6E6"/>
<path d="M102.938 48.8786C102.642 48.5829 102.241 48.4167 101.823 48.4167C101.405 48.4166 101.004 48.5828 100.709 48.8785L100.709 48.8786L93.9433 55.6485V38.9545C93.9398 38.5385 93.7722 38.1407 93.477 37.8478C93.1819 37.5549 92.783 37.3905 92.3673 37.3905C91.9515 37.3905 91.5526 37.5549 91.2574 37.8478C90.9623 38.1407 90.7947 38.5385 90.7912 38.9545V55.6485L84.0257 48.8785C83.7307 48.5832 83.3306 48.4169 82.9132 48.4163C82.4958 48.4158 82.0953 48.5808 81.7994 48.8754C81.5036 49.1699 81.3365 49.5699 81.335 49.9875C81.3334 50.4052 81.4975 50.8064 81.7911 51.1031L81.7968 51.1088L91.2528 60.571C91.5484 60.8668 91.9493 61.0329 92.3673 61.0329C92.7852 61.0329 93.1861 60.8668 93.4817 60.571L102.938 51.1088C103.233 50.813 103.399 50.4119 103.399 49.9937C103.399 49.5755 103.233 49.1744 102.938 48.8786Z" fill="white"/>
<path d="M172.594 148.879C171.872 148.88 171.179 149.167 170.669 149.678C170.158 150.189 169.871 150.882 169.87 151.604V244.564C169.871 245.286 170.158 245.979 170.669 246.49C171.179 247.001 171.872 247.288 172.594 247.289H489.362C490.084 247.288 490.776 247.001 491.287 246.49C491.797 245.979 492.084 245.286 492.085 244.564V151.604C492.084 150.882 491.797 150.189 491.287 149.678C490.776 149.167 490.084 148.88 489.362 148.879H172.594Z" fill="#E6E6E6"/>
<path d="M176.696 240.46H485.26V155.708H176.696V240.46Z" fill="white"/>
<path d="M446.311 222.879C445.114 222.879 443.966 223.355 443.12 224.201C442.274 225.048 441.799 226.197 441.799 227.394C441.799 228.591 442.274 229.74 443.12 230.587C443.966 231.433 445.114 231.909 446.311 231.909H464.356C465.552 231.909 466.7 231.433 467.546 230.587C468.392 229.74 468.868 228.591 468.868 227.394C468.868 226.197 468.392 225.048 467.546 224.201C466.7 223.355 465.552 222.879 464.356 222.879H446.311Z" fill="#051537"/>
<path d="M468.87 214.121H260.538V215.309H468.87V214.121Z" fill="#E6E6E6"/>
<path d="M216.989 224.381C231.503 224.381 243.268 212.608 243.268 198.085C243.268 183.562 231.503 171.789 216.989 171.789C202.476 171.789 190.71 183.562 190.71 198.085C190.71 212.608 202.476 224.381 216.989 224.381Z" fill="#051537"/>
<path d="M260.867 207.488L260.208 206.499L281.856 192.057L296.702 199.188L318.055 185.537L318.344 185.66L360.531 203.669L394.357 187.041L427.204 200.366L468.476 163.786L469.263 164.676L427.439 201.741L394.403 188.339L360.566 204.971L318.166 186.872L296.784 200.542L281.956 193.421L260.867 207.488Z" fill="#3F3D56"/>
<path d="M264.396 223.5C263.373 223.483 262.385 223.874 261.65 224.586C260.915 225.298 260.492 226.273 260.476 227.297C260.459 228.321 260.849 229.309 261.561 230.045C262.273 230.781 263.247 231.204 264.271 231.22V231.22C264.312 231.221 264.354 231.221 264.396 231.22H304.757C305.769 231.204 306.734 230.79 307.445 230.068C308.155 229.346 308.553 228.373 308.553 227.36C308.553 226.347 308.155 225.374 307.445 224.652C306.734 223.93 305.769 223.516 304.757 223.5H264.396Z" fill="#E6E6E6"/>
<path d="M206.419 198.412C206.565 198.558 206.739 198.674 206.93 198.754C207.122 198.833 207.327 198.874 207.533 198.874C207.74 198.874 207.945 198.833 208.137 198.754C208.328 198.674 208.502 198.558 208.648 198.412L208.648 198.412L215.414 191.642V208.336C215.414 208.754 215.58 209.155 215.875 209.451C216.171 209.747 216.572 209.913 216.99 209.913C217.408 209.913 217.808 209.747 218.104 209.451C218.399 209.155 218.566 208.754 218.566 208.336V191.642L225.331 198.412C225.477 198.558 225.651 198.674 225.842 198.754C226.034 198.833 226.239 198.874 226.446 198.874C226.652 198.874 226.857 198.833 227.049 198.754C227.24 198.674 227.414 198.558 227.56 198.412C227.706 198.265 227.822 198.091 227.902 197.9C227.981 197.709 228.022 197.504 228.022 197.297C228.022 197.089 227.981 196.884 227.902 196.693C227.822 196.502 227.706 196.328 227.56 196.181L218.104 186.719C217.808 186.423 217.408 186.257 216.99 186.257C216.572 186.257 216.171 186.423 215.875 186.719L206.419 196.181C206.124 196.477 205.958 196.878 205.958 197.297C205.958 197.715 206.124 198.116 206.419 198.412V198.412Z" fill="white"/>
<path d="M6.72366 297.759C6.00154 297.76 5.30924 298.047 4.79863 298.558C4.28801 299.069 4.00079 299.762 4 300.484V393.444C4.00079 394.166 4.28801 394.859 4.79863 395.37C5.30924 395.881 6.00154 396.168 6.72366 396.169H323.491C324.213 396.168 324.905 395.881 325.416 395.37C325.926 394.859 326.213 394.166 326.214 393.444V300.484C326.213 299.762 325.926 299.069 325.416 298.558C324.905 298.047 324.213 297.76 323.491 297.759H6.72366Z" fill="#E6E6E6"/>
<path d="M10.8257 389.34H319.39V304.588H10.8257V389.34Z" fill="white"/>
<path d="M280.439 371.758C279.243 371.758 278.095 372.234 277.249 373.08C276.403 373.927 275.927 375.075 275.927 376.273C275.927 377.47 276.403 378.619 277.249 379.465C278.095 380.312 279.243 380.788 280.439 380.788H298.486C299.683 380.788 300.83 380.312 301.676 379.465C302.523 378.619 302.998 377.47 302.998 376.273C302.998 375.075 302.523 373.927 301.676 373.08C300.83 372.234 299.683 371.758 298.486 371.758H280.439Z" fill="#051537"/>
<path d="M302.999 363.001H94.6665V364.189H302.999V363.001Z" fill="#E6E6E6"/>
<path d="M51.119 373.26C65.6324 373.26 77.3978 361.487 77.3978 346.964C77.3978 332.441 65.6324 320.668 51.119 320.668C36.6057 320.668 24.8403 332.441 24.8403 346.964C24.8403 361.487 36.6057 373.26 51.119 373.26Z" fill="#051537"/>
<path d="M94.9961 356.368L94.3379 355.379L115.986 340.936L130.831 348.067L152.185 334.412L194.661 352.543L228.486 335.915L261.329 349.245L302.601 332.654L303.388 333.544L261.569 350.623L228.533 337.22L194.696 353.853L152.296 335.754L130.915 349.424L116.083 342.3L94.9961 356.368Z" fill="#3F3D56"/>
<path d="M98.5247 372.379C97.5123 372.395 96.5469 372.809 95.8367 373.531C95.1265 374.253 94.7285 375.226 94.7285 376.239C94.7285 377.252 95.1265 378.225 95.8367 378.947C96.5469 379.669 97.5123 380.083 98.5247 380.099H138.885C139.392 380.107 139.895 380.016 140.366 379.829C140.837 379.643 141.267 379.366 141.631 379.013C141.995 378.66 142.287 378.239 142.488 377.774C142.69 377.309 142.797 376.809 142.806 376.302C142.814 375.795 142.722 375.291 142.536 374.82C142.35 374.348 142.073 373.918 141.72 373.554C141.368 373.189 140.947 372.898 140.482 372.696C140.017 372.495 139.517 372.387 139.011 372.379C138.969 372.378 138.927 372.378 138.885 372.379H98.5247Z" fill="#E6E6E6"/>
<path d="M40.5485 347.291C40.6949 347.437 40.8686 347.553 41.0598 347.632C41.251 347.712 41.4559 347.752 41.6629 347.752C41.8698 347.752 42.0748 347.712 42.266 347.632C42.4572 347.553 42.6309 347.437 42.7773 347.291L42.7774 347.291L49.5429 340.521V357.215C49.5448 357.631 49.711 358.029 50.0052 358.324C50.2995 358.618 50.698 358.783 51.1139 358.785C51.5298 358.786 51.9294 358.623 52.2255 358.331C52.5217 358.038 52.6904 357.641 52.6949 357.225V340.521L59.4605 347.291C59.7552 347.587 60.1557 347.754 60.5737 347.755C60.9917 347.756 61.393 347.591 61.6893 347.296C61.9856 347.001 62.1527 346.601 62.1537 346.182C62.1548 345.764 61.9898 345.363 61.695 345.066L61.6893 345.06L52.2333 335.598C51.9378 335.302 51.5369 335.136 51.1189 335.136C50.7009 335.136 50.3001 335.302 50.0045 335.598L40.5485 345.06C40.4022 345.207 40.2861 345.381 40.2069 345.572C40.1277 345.763 40.0869 345.968 40.0869 346.175C40.0869 346.383 40.1277 346.588 40.2069 346.779C40.2861 346.97 40.4022 347.144 40.5485 347.291V347.291Z" fill="white"/>
<path d="M653.623 621.612L638.413 621.611L631.178 562.907L653.625 562.908L653.623 621.612Z" fill="#FFB7B7"/>
<path d="M657.501 636.365L608.459 636.363V635.742C608.46 630.677 610.471 625.818 614.051 622.236C617.631 618.654 622.486 616.642 627.548 616.642H627.549L657.502 616.643L657.501 636.365Z" fill="#051537"/>
<path d="M597.796 621.612L582.586 621.611L575.35 562.907L597.799 562.908L597.796 621.612Z" fill="#FFB7B7"/>
<path d="M601.674 636.365L552.632 636.363V635.742C552.633 630.677 554.644 625.818 558.224 622.236C561.803 618.654 566.658 616.642 571.721 616.642H571.722L601.675 616.643L601.674 636.365Z" fill="#051537"/>
<path d="M569.128 431.202C570.446 430.126 571.511 428.773 572.249 427.24C572.988 425.707 573.381 424.031 573.402 422.329C573.423 420.628 573.071 418.942 572.371 417.391C571.67 415.841 570.639 414.462 569.348 413.354L577.615 388.072L563.487 379.297L552.313 415.165C550.596 417.457 549.778 420.301 550.016 423.156C550.253 426.011 551.529 428.68 553.602 430.657C555.675 432.634 558.4 433.781 561.262 433.882C564.123 433.982 566.922 433.029 569.128 431.202V431.202Z" fill="#FFB7B7"/>
<path d="M584.2 414.512C584.2 414.512 570.003 491.41 570.18 506.336C570.394 524.349 578.403 601.546 578.403 601.546L598.795 596.444L602.65 506.969L618.778 449.863L624.981 523.107L631.207 600.154H654.864L660.162 406.86L582.925 404.309L584.2 414.512Z" fill="#051537"/>
<path d="M654.934 259.559L614.15 260.834L588.661 418.976C588.661 418.976 642.826 443.845 665.767 425.99C688.708 408.135 654.934 259.559 654.934 259.559Z" fill="#CBCBCB"/>
<path d="M619.885 293.355L585.474 491.032L563.808 484.656L579.102 413.237L586.748 341.818L585.474 270.399L612.238 258.921L619.885 249.994C619.885 249.994 635.179 269.124 619.885 293.355Z" fill="#051537"/>
<path d="M637.729 288.53L640.277 496.134L692.532 487.206L688.708 294.63L693.806 267.848L668.316 256.37L657.995 249.994C657.995 249.994 635.18 256.923 637.729 288.53Z" fill="#051537"/>
<path d="M596.945 274.225L585.475 270.399L568.906 344.368L554.886 403.034L575.278 406.86L594.396 343.093L596.945 274.225Z" fill="#051537"/>
<path d="M711.848 443.616C710.531 442.54 709.465 441.188 708.727 439.655C707.988 438.122 707.595 436.445 707.574 434.744C707.553 433.042 707.905 431.356 708.605 429.806C709.306 428.255 710.337 426.877 711.628 425.768L703.361 400.486L717.489 391.711L728.663 427.579C730.38 429.871 731.198 432.715 730.96 435.57C730.723 438.425 729.447 441.094 727.374 443.071C725.301 445.048 722.576 446.195 719.715 446.296C716.853 446.396 714.054 445.443 711.848 443.616V443.616Z" fill="#FFB7B7"/>
<path d="M682.791 271.742L694.261 267.917L710.83 341.886L726.09 415.448L703.138 418.827L685.34 340.611L682.791 271.742Z" fill="#051537"/>
<path d="M650.928 239.563C664.656 232.054 669.701 214.831 662.197 201.094C654.693 187.357 637.481 182.309 623.753 189.818C610.026 197.327 604.981 214.55 612.485 228.287C619.989 242.024 637.201 247.072 650.928 239.563Z" fill="#FFB7B7"/>
<path d="M707.949 637H478.231C477.966 637 477.712 636.895 477.525 636.707C477.338 636.52 477.232 636.266 477.232 636.001C477.232 635.736 477.338 635.481 477.525 635.294C477.712 635.106 477.966 635.001 478.231 635.001H707.949C708.214 635.001 708.468 635.106 708.655 635.294C708.843 635.481 708.948 635.736 708.948 636.001C708.948 636.266 708.843 636.52 708.655 636.707C708.468 636.895 708.214 637 707.949 637Z" fill="#CBCBCB"/>
<path d="M627.463 177.598C654.544 169.784 662.23 192.244 662.23 192.244C675.283 200.909 667.111 211.774 667.111 211.774C670.405 212.506 663.819 231.793 661.623 231.305C660.452 231.045 657.439 234.643 654.883 238.056C654.007 238.055 653.133 238.139 652.273 238.308L657.231 219.953C657.231 219.953 640.519 217.391 635.395 209.335C630.492 201.628 614.354 199.194 609.762 204.342C609.49 202.862 608.934 201.449 608.124 200.181C607.497 199.218 606.677 198.395 605.716 197.765C609.776 180.497 627.463 177.598 627.463 177.598Z" fill="#051537"/>
</g>
<defs>
<filter id="filter0_d_80_404" x="0" y="0" width="735" height="645" filterUnits="userSpaceOnUse" color-interpolation-filters="sRGB">
<feFlood flood-opacity="0" result="BackgroundImageFix"/>
<feColorMatrix in="SourceAlpha" type="matrix" values="0 0 0 0 0 0 0 0 0 0 0 0 0 0 0 0 0 0 127 0" result="hardAlpha"/>
<feOffset dy="4"/>
<feGaussianBlur stdDeviation="2"/>
<feComposite in2="hardAlpha" operator="out"/>
<feColorMatrix type="matrix" values="0 0 0 0 0 0 0 0 0 0 0 0 0 0 0 0 0 0 0.25 0"/>
<feBlend mode="normal" in2="BackgroundImageFix" result="effect1_dropShadow_80_404"/>
<feBlend mode="normal" in="SourceGraphic" in2="effect1_dropShadow_80_404" result="shape"/>
</filter>
<clipPath id="clip0_80_404">
<rect width="727" height="637" fill="white" transform="translate(4)"/>
</clipPath>
</defs>
</svg>
