<svg width="179" height="64" viewBox="0 0 179 64" fill="none" xmlns="http://www.w3.org/2000/svg">
<path d="M1.51308 0C1.11192 0.000516123 0.727322 0.18742 0.443661 0.519711C0.16 0.852001 0.00044059 1.30253 0 1.77246V62.2275C0.00044059 62.6975 0.16 63.148 0.443661 63.4803C0.727322 63.8126 1.11192 63.9995 1.51308 64H177.487C177.888 63.9995 178.273 63.8126 178.556 63.4803C178.84 63.148 179 62.6975 179 62.2275V1.77246C179 1.30253 178.84 0.852001 178.556 0.519711C178.273 0.18742 177.888 0.000516123 177.487 0H1.51308Z" fill="#08235F"/>
<path d="M5 59H174V5H5V59Z" fill="#051537"/>
<rect width="142" height="32" transform="translate(22 16)" fill="#051537"/>
<path d="M23.64 39V25.04H26.28V36.66H31.78V39H23.64ZM37.9344 39.24C37.161 39.24 36.4677 39.1133 35.8544 38.86C35.2544 38.5933 34.741 38.2267 34.3144 37.76C33.901 37.28 33.581 36.7067 33.3544 36.04C33.1277 35.36 33.0144 34.6 33.0144 33.76C33.0144 32.9333 33.121 32.1867 33.3344 31.52C33.561 30.8533 33.881 30.2867 34.2944 29.82C34.7077 29.34 35.2144 28.9733 35.8144 28.72C36.4144 28.4533 37.0944 28.32 37.8544 28.32C38.6677 28.32 39.3744 28.46 39.9744 28.74C40.5744 29.02 41.0677 29.4 41.4544 29.88C41.841 30.36 42.1277 30.92 42.3144 31.56C42.5144 32.1867 42.6144 32.86 42.6144 33.58V34.42H35.6744V34.68C35.6744 35.44 35.8877 36.0533 36.3144 36.52C36.741 36.9733 37.3744 37.2 38.2144 37.2C38.8544 37.2 39.3744 37.0667 39.7744 36.8C40.1877 36.5333 40.5544 36.1933 40.8744 35.78L42.2544 37.32C41.8277 37.92 41.241 38.3933 40.4944 38.74C39.761 39.0733 38.9077 39.24 37.9344 39.24ZM37.8944 30.24C37.2144 30.24 36.6744 30.4667 36.2744 30.92C35.8744 31.3733 35.6744 31.96 35.6744 32.68V32.84H39.9544V32.66C39.9544 31.94 39.7744 31.36 39.4144 30.92C39.0677 30.4667 38.561 30.24 37.8944 30.24ZM52.5467 39C51.9867 39 51.5401 38.84 51.2067 38.52C50.8867 38.1867 50.6867 37.7467 50.6067 37.2H50.4867C50.3134 37.88 49.9601 38.3933 49.4267 38.74C48.8934 39.0733 48.2334 39.24 47.4467 39.24C46.3801 39.24 45.5601 38.96 44.9867 38.4C44.4134 37.84 44.1267 37.0933 44.1267 36.16C44.1267 35.08 44.5134 34.28 45.2867 33.76C46.0601 33.2267 47.1601 32.96 48.5867 32.96H50.3667V32.2C50.3667 31.6133 50.2134 31.16 49.9067 30.84C49.6001 30.52 49.1067 30.36 48.4267 30.36C47.8267 30.36 47.3401 30.4933 46.9667 30.76C46.6067 31.0133 46.3001 31.32 46.0467 31.68L44.5267 30.32C44.9134 29.72 45.4267 29.24 46.0667 28.88C46.7067 28.5067 47.5534 28.32 48.6067 28.32C50.0201 28.32 51.0934 28.64 51.8267 29.28C52.5601 29.92 52.9267 30.84 52.9267 32.04V36.96H53.9667V39H52.5467ZM48.3067 37.38C48.8801 37.38 49.3667 37.2533 49.7667 37C50.1667 36.7467 50.3667 36.3733 50.3667 35.88V34.5H48.7267C47.3934 34.5 46.7267 34.9267 46.7267 35.78V36.12C46.7267 36.5467 46.8601 36.8667 47.1267 37.08C47.4067 37.28 47.8001 37.38 48.3067 37.38ZM56.0386 39V28.56H58.5986V30.72H58.6986C58.7653 30.44 58.8653 30.1733 58.9986 29.92C59.1453 29.6533 59.3319 29.42 59.5586 29.22C59.7853 29.02 60.0519 28.86 60.3586 28.74C60.6786 28.62 61.0453 28.56 61.4586 28.56H62.0186V30.98H61.2186C60.3519 30.98 59.6986 31.1067 59.2586 31.36C58.8186 31.6133 58.5986 32.0267 58.5986 32.6V39H56.0386ZM63.8902 39V28.56H66.4502V30.3H66.5502C66.7635 29.74 67.0968 29.2733 67.5502 28.9C68.0168 28.5133 68.6568 28.32 69.4702 28.32C70.5502 28.32 71.3768 28.6733 71.9502 29.38C72.5235 30.0867 72.8102 31.0933 72.8102 32.4V39H70.2502V32.66C70.2502 31.9133 70.1168 31.3533 69.8502 30.98C69.5835 30.6067 69.1435 30.42 68.5302 30.42C68.2635 30.42 68.0035 30.46 67.7502 30.54C67.5102 30.6067 67.2902 30.7133 67.0902 30.86C66.9035 30.9933 66.7502 31.1667 66.6302 31.38C66.5102 31.58 66.4502 31.82 66.4502 32.1V39H63.8902ZM80.3745 39V28.56H82.9345V30.3H83.0345C83.2345 29.7533 83.5545 29.2867 83.9945 28.9C84.4345 28.5133 85.0479 28.32 85.8345 28.32C86.5545 28.32 87.1745 28.4933 87.6945 28.84C88.2145 29.1867 88.6012 29.7133 88.8545 30.42H88.8945C89.0812 29.8333 89.4479 29.34 89.9945 28.94C90.5545 28.5267 91.2545 28.32 92.0945 28.32C93.1212 28.32 93.9079 28.6733 94.4545 29.38C95.0145 30.0867 95.2945 31.0933 95.2945 32.4V39H92.7345V32.66C92.7345 31.1667 92.1745 30.42 91.0545 30.42C90.8012 30.42 90.5545 30.46 90.3145 30.54C90.0879 30.6067 89.8812 30.7133 89.6945 30.86C89.5212 30.9933 89.3812 31.1667 89.2745 31.38C89.1679 31.58 89.1145 31.82 89.1145 32.1V39H86.5545V32.66C86.5545 31.1667 85.9945 30.42 84.8745 30.42C84.6345 30.42 84.3945 30.46 84.1545 30.54C83.9279 30.6067 83.7212 30.7133 83.5345 30.86C83.3612 30.9933 83.2145 31.1667 83.0945 31.38C82.9879 31.58 82.9345 31.82 82.9345 32.1V39H80.3745ZM102.268 39.24C101.522 39.24 100.848 39.1133 100.248 38.86C99.6618 38.6067 99.1551 38.24 98.7284 37.76C98.3151 37.28 97.9951 36.7067 97.7684 36.04C97.5418 35.36 97.4284 34.6 97.4284 33.76C97.4284 32.92 97.5418 32.1667 97.7684 31.5C97.9951 30.8333 98.3151 30.2667 98.7284 29.8C99.1551 29.32 99.6618 28.9533 100.248 28.7C100.848 28.4467 101.522 28.32 102.268 28.32C103.015 28.32 103.688 28.4467 104.288 28.7C104.888 28.9533 105.395 29.32 105.808 29.8C106.235 30.2667 106.562 30.8333 106.788 31.5C107.015 32.1667 107.128 32.92 107.128 33.76C107.128 34.6 107.015 35.36 106.788 36.04C106.562 36.7067 106.235 37.28 105.808 37.76C105.395 38.24 104.888 38.6067 104.288 38.86C103.688 39.1133 103.015 39.24 102.268 39.24ZM102.268 37.18C102.948 37.18 103.482 36.9733 103.868 36.56C104.255 36.1467 104.448 35.54 104.448 34.74V32.8C104.448 32.0133 104.255 31.4133 103.868 31C103.482 30.5867 102.948 30.38 102.268 30.38C101.602 30.38 101.075 30.5867 100.688 31C100.302 31.4133 100.108 32.0133 100.108 32.8V34.74C100.108 35.54 100.302 36.1467 100.688 36.56C101.075 36.9733 101.602 37.18 102.268 37.18ZM109.398 39V28.56H111.958V30.72H112.058C112.125 30.44 112.225 30.1733 112.358 29.92C112.505 29.6533 112.691 29.42 112.918 29.22C113.145 29.02 113.411 28.86 113.718 28.74C114.038 28.62 114.405 28.56 114.818 28.56H115.378V30.98H114.578C113.711 30.98 113.058 31.1067 112.618 31.36C112.178 31.6133 111.958 32.0267 111.958 32.6V39H109.398ZM121.372 39.24C120.599 39.24 119.905 39.1133 119.292 38.86C118.692 38.5933 118.179 38.2267 117.752 37.76C117.339 37.28 117.019 36.7067 116.792 36.04C116.565 35.36 116.452 34.6 116.452 33.76C116.452 32.9333 116.559 32.1867 116.772 31.52C116.999 30.8533 117.319 30.2867 117.732 29.82C118.145 29.34 118.652 28.9733 119.252 28.72C119.852 28.4533 120.532 28.32 121.292 28.32C122.105 28.32 122.812 28.46 123.412 28.74C124.012 29.02 124.505 29.4 124.892 29.88C125.279 30.36 125.565 30.92 125.752 31.56C125.952 32.1867 126.052 32.86 126.052 33.58V34.42H119.112V34.68C119.112 35.44 119.325 36.0533 119.752 36.52C120.179 36.9733 120.812 37.2 121.652 37.2C122.292 37.2 122.812 37.0667 123.212 36.8C123.625 36.5333 123.992 36.1933 124.312 35.78L125.692 37.32C125.265 37.92 124.679 38.3933 123.932 38.74C123.199 39.0733 122.345 39.24 121.372 39.24ZM121.332 30.24C120.652 30.24 120.112 30.4667 119.712 30.92C119.312 31.3733 119.112 31.96 119.112 32.68V32.84H123.392V32.66C123.392 31.94 123.212 31.36 122.852 30.92C122.505 30.4667 121.999 30.24 121.332 30.24Z" fill="white"/>
<path d="M149 37.5858L152.626 33.9596C153.017 33.5691 153.65 33.5691 154.04 33.9596C154.431 34.3502 154.431 34.9832 154.04 35.3738L148.707 40.7071C148.316 41.0976 147.683 41.0976 147.293 40.7071L141.959 35.3738C141.569 34.9832 141.569 34.3502 141.959 33.9596C142.35 33.5691 142.983 33.5691 143.374 33.9596L147 37.5858V24.6667C147 24.1144 147.448 23.6667 148 23.6667C148.552 23.6667 149 24.1144 149 24.6667V37.5858Z" fill="white"/>
</svg>
