<svg width="22" height="22" viewBox="0 0 22 22" fill="none" xmlns="http://www.w3.org/2000/svg">
<path d="M20.1663 20.8542H4.58301C2.68551 20.8542 1.14551 19.3142 1.14551 17.4167V1.83334C1.14551 1.45751 1.45717 1.14584 1.83301 1.14584C2.20884 1.14584 2.52051 1.45751 2.52051 1.83334V17.4167C2.52051 18.5533 3.44634 19.4792 4.58301 19.4792H20.1663C20.5422 19.4792 20.8538 19.7908 20.8538 20.1667C20.8538 20.5425 20.5422 20.8542 20.1663 20.8542Z" fill="white"/>
<path opacity="0.4" d="M4.58292 16.2708C4.42709 16.2708 4.26209 16.2158 4.13375 16.1058C3.9961 15.9861 3.9112 15.817 3.89747 15.6351C3.88375 15.4532 3.9423 15.2732 4.06042 15.1342L8.26792 10.2208C8.72626 9.68918 9.38626 9.36834 10.0829 9.34084C10.7796 9.32251 11.4671 9.57918 11.9621 10.0742L12.8329 10.945C13.0621 11.1742 13.3554 11.2842 13.6854 11.2842C14.0063 11.275 14.2996 11.1283 14.5104 10.8808L18.7179 5.96751C18.9654 5.68334 19.3963 5.64668 19.6896 5.89418C19.9738 6.14168 20.0104 6.57251 19.7629 6.86584L15.5554 11.7792C15.0971 12.3108 14.4371 12.6317 13.7404 12.6592C13.3938 12.6713 13.0483 12.6125 12.7252 12.4864C12.4021 12.3603 12.1081 12.1695 11.8613 11.9258L10.9996 11.055C10.7704 10.8258 10.4679 10.7067 10.1471 10.7158C9.82625 10.725 9.53292 10.8717 9.32209 11.1192L5.11459 16.0325C5.04695 16.1065 4.96488 16.1658 4.87344 16.2067C4.782 16.2477 4.68312 16.2696 4.58292 16.2708Z" fill="white"/>
</svg>
