<svg width="22" height="22" viewBox="0 0 22 22" fill="none" xmlns="http://www.w3.org/2000/svg">
<path opacity="0.4" d="M8.24967 1.83333C5.84801 1.83333 3.89551 3.78583 3.89551 6.1875C3.89551 8.54333 5.73801 10.45 8.13967 10.5325C8.21301 10.5233 8.28634 10.5233 8.34134 10.5325H8.40551C9.53242 10.4949 10.6005 10.0205 11.384 9.20966C12.1675 8.39881 12.6049 7.31503 12.6038 6.1875C12.6038 3.78583 10.6513 1.83333 8.24967 1.83333Z" fill="white"/>
<path d="M12.9069 12.9699C10.3494 11.2649 6.17854 11.2649 3.60271 12.9699C2.43854 13.7491 1.79688 14.8032 1.79688 15.9307C1.79688 17.0582 2.43854 18.1033 3.59354 18.8733C4.87688 19.7349 6.56354 20.1658 8.25021 20.1658C9.93688 20.1658 11.6235 19.7349 12.9069 18.8733C14.0619 18.0941 14.7035 17.0491 14.7035 15.9124C14.6944 14.7849 14.0619 13.7399 12.9069 12.9699Z" fill="white"/>
<path opacity="0.4" d="M18.3246 6.7265C18.4712 8.50484 17.2062 10.0632 15.4554 10.274H15.4096C15.3546 10.274 15.2996 10.274 15.2537 10.2923C14.3646 10.3382 13.5487 10.054 12.9346 9.5315C13.8787 8.68817 14.4196 7.42317 14.3096 6.04817C14.2467 5.33317 14.0039 4.64572 13.6037 4.04984C14.0841 3.81616 14.614 3.70285 15.1479 3.71967C15.6818 3.7365 16.2036 3.88295 16.6682 4.14641C17.1329 4.40986 17.5265 4.78241 17.815 5.2319C18.1036 5.6814 18.2785 6.19435 18.3246 6.7265Z" fill="white"/>
<path d="M20.1556 15.2075C20.0823 16.0967 19.5139 16.8667 18.5606 17.3892C17.6439 17.8933 16.4889 18.1317 15.3431 18.1042C16.0031 17.5083 16.3881 16.7658 16.4614 15.9775C16.5531 14.8408 16.0123 13.75 14.9306 12.8792C14.3164 12.3933 13.6014 12.0083 12.8223 11.7242C14.8481 11.1375 17.3964 11.5317 18.9639 12.7967C19.8073 13.475 20.2381 14.3275 20.1556 15.2075Z" fill="white"/>
</svg>
