<svg width="44" height="45" viewBox="0 0 44 45" fill="none" xmlns="http://www.w3.org/2000/svg">
<path opacity="0.4" d="M29.682 4.16666H14.3187C7.64533 4.16666 3.66699 8.14499 3.66699 14.8183V30.1633C3.66699 36.855 7.64533 40.8333 14.3187 40.8333H29.6637C36.337 40.8333 40.3153 36.855 40.3153 30.1817V14.8183C40.3337 8.14499 36.3553 4.16666 29.682 4.16666Z" fill="white"/>
<path d="M23.9435 22.5L28.1602 18.2833C28.6918 17.7517 28.6918 16.8717 28.1602 16.34C27.9014 16.0843 27.5523 15.9409 27.1885 15.9409C26.8247 15.9409 26.4756 16.0843 26.2168 16.34L22.0002 20.5567L17.7835 16.34C17.5247 16.0843 17.1756 15.9409 16.8118 15.9409C16.448 15.9409 16.0989 16.0843 15.8402 16.34C15.3085 16.8717 15.3085 17.7517 15.8402 18.2833L20.0568 22.5L15.8402 26.7167C15.3085 27.2483 15.3085 28.1283 15.8402 28.66C16.1152 28.935 16.4635 29.0633 16.8118 29.0633C17.1602 29.0633 17.5085 28.935 17.7835 28.66L22.0002 24.4433L26.2168 28.66C26.4918 28.935 26.8402 29.0633 27.1885 29.0633C27.5368 29.0633 27.8852 28.935 28.1602 28.66C28.6918 28.1283 28.6918 27.2483 28.1602 26.7167L23.9435 22.5Z" fill="white"/>
</svg>
