<svg width="22" height="22" viewBox="0 0 22 22" fill="none" xmlns="http://www.w3.org/2000/svg">
<path opacity="0.4" d="M17.2413 5.72916H18.4879C18.3138 5.48166 18.1304 5.2525 17.9379 5.02333L17.2413 5.72916ZM16.9763 4.05166C16.7472 3.85916 16.518 3.67583 16.2705 3.50166V4.74833L16.9763 4.05166Z" fill="white"/>
<path opacity="0.4" d="M15.583 7.10416C15.4913 7.10416 15.4088 7.08583 15.3172 7.04916C15.1484 6.97667 15.0138 6.84214 14.9413 6.67333C14.9047 6.58951 14.886 6.49897 14.8863 6.40749V2.74083C14.8863 2.73166 14.8955 2.72249 14.8955 2.70416C13.713 2.15416 12.393 1.83333 10.9997 1.83333C5.93967 1.83333 1.83301 5.94 1.83301 11C1.83301 16.06 5.93967 20.1667 10.9997 20.1667C16.0597 20.1667 20.1663 16.06 20.1663 11C20.1663 9.60666 19.8455 8.28666 19.2863 7.09499C19.2772 7.09499 19.268 7.10416 19.2497 7.10416H15.583Z" fill="white"/>
<path d="M17.948 5.02424L20.6522 2.32008C20.918 2.05424 20.918 1.61424 20.6522 1.34841C20.5228 1.22055 20.3482 1.14885 20.1663 1.14885C19.9844 1.14885 19.8099 1.22055 19.6805 1.34841L16.9763 4.05258C17.3247 4.35508 17.6455 4.68508 17.948 5.02424ZM16.2723 2.74999C16.2723 2.37416 15.9607 2.06249 15.5848 2.06249C15.2182 2.06249 14.9248 2.35583 14.9065 2.71333C15.3832 2.94249 15.8415 3.19916 16.2723 3.50166V2.74999ZM19.939 6.41666C19.939 6.04083 19.6273 5.72916 19.2515 5.72916H18.4907C18.7932 6.15999 19.059 6.61833 19.279 7.09499C19.6457 7.07666 19.939 6.78333 19.939 6.41666ZM12.6038 10.835L11.6872 10.5142V8.47916H11.7605C12.228 8.47916 12.6038 8.89166 12.6038 9.39583C12.6038 9.77166 12.9155 10.0833 13.2913 10.0833C13.6672 10.0833 13.9788 9.77166 13.9788 9.39583C13.9788 8.13083 12.9888 7.10416 11.7605 7.10416H11.6872V6.87499C11.6872 6.49916 11.3755 6.18749 10.9997 6.18749C10.6238 6.18749 10.3122 6.49916 10.3122 6.87499V7.10416H10.0372C8.92801 7.10416 8.02051 8.03916 8.02051 9.19416C8.02051 10.5325 8.79967 10.9633 9.39551 11.1742L10.3122 11.495V13.53H10.2388C9.77134 13.53 9.39551 13.1175 9.39551 12.6133C9.39551 12.2375 9.08384 11.9258 8.70801 11.9258C8.33217 11.9258 8.02051 12.2375 8.02051 12.6133C8.02051 13.8783 9.01051 14.905 10.2388 14.905H10.3122V15.1342C10.3122 15.51 10.6238 15.8217 10.9997 15.8217C11.3755 15.8217 11.6872 15.51 11.6872 15.1342V14.905H11.9622C13.0713 14.905 13.9788 13.97 13.9788 12.815C13.9788 11.4675 13.1997 11.0367 12.6038 10.835ZM9.84467 9.86333C9.53301 9.75333 9.39551 9.68916 9.39551 9.18499C9.39551 8.79083 9.68884 8.46999 10.0372 8.46999H10.3122V10.0192L9.84467 9.86333ZM11.9622 13.5208H11.6872V11.9717L12.1547 12.1367C12.4663 12.2467 12.6038 12.3108 12.6038 12.815C12.6038 13.2 12.3105 13.5208 11.9622 13.5208Z" fill="white"/>
</svg>
