<svg width="22" height="22" viewBox="0 0 22 22" fill="none" xmlns="http://www.w3.org/2000/svg">
<path opacity="0.4" d="M14.8431 1.83334H7.17056C3.83389 1.83334 1.84473 3.8225 1.84473 7.15917V14.8317C1.84473 18.1683 3.83389 20.1575 7.17056 20.1575H14.8431C18.1797 20.1575 20.1689 18.1683 20.1689 14.8317V7.15917C20.1689 3.8225 18.1797 1.83334 14.8431 1.83334Z" fill="white"/>
<path d="M17.4163 13.75H17.1872V7.10417C17.1872 5.71084 16.0597 4.58334 14.6663 4.58334H7.33301C5.93967 4.58334 4.81217 5.71084 4.81217 7.10417V13.75H4.58301C4.20717 13.75 3.89551 14.0617 3.89551 14.4375C3.89551 14.8133 4.20717 15.125 4.58301 15.125H8.10301C8.41467 16.4358 9.59717 17.4167 10.9997 17.4167C12.4022 17.4167 13.5847 16.4358 13.8963 15.125H17.4163C17.7922 15.125 18.1038 14.8133 18.1038 14.4375C18.1038 14.0617 17.7922 13.75 17.4163 13.75ZM15.3905 10.89C15.3329 10.8704 15.2748 10.852 15.2163 10.835C15.033 10.7983 14.8497 10.7708 14.6572 10.7708H7.32384C7.13134 10.7708 6.94801 10.7983 6.76467 10.835C6.70967 10.8442 6.65467 10.8717 6.59051 10.89C6.47134 10.9267 6.35217 10.9633 6.24217 11.0183C6.21467 11.0275 6.18717 11.0367 6.16884 11.0458V10.0833C6.16884 9.45084 6.68217 8.9375 7.31467 8.9375H14.648C15.2805 8.9375 15.7938 9.45084 15.7938 10.0833V11.0458C15.7663 11.0367 15.748 11.0275 15.7205 11.0183C15.6288 10.9633 15.5097 10.9267 15.3905 10.89ZM7.33301 5.95834H14.6663C15.2988 5.95834 15.8122 6.47167 15.8122 7.10417V7.84667C15.4638 7.6725 15.0788 7.5625 14.6663 7.5625H7.33301C6.92051 7.5625 6.53551 7.6725 6.18717 7.84667V7.10417C6.18717 6.47167 6.70051 5.95834 7.33301 5.95834ZM13.2913 13.75C12.9155 13.75 12.6038 14.0617 12.6038 14.4375C12.6038 15.3175 11.8797 16.0417 10.9997 16.0417C10.1197 16.0417 9.39551 15.3175 9.39551 14.4375C9.39551 14.0617 9.08384 13.75 8.70801 13.75H6.18717V13.2917C6.18717 12.6592 6.70051 12.1458 7.33301 12.1458H14.6663C15.2988 12.1458 15.8122 12.6592 15.8122 13.2917V13.75H13.2913Z" fill="white"/>
</svg>
