<svg width="22" height="22" viewBox="0 0 22 22" fill="none" xmlns="http://www.w3.org/2000/svg">
<path opacity="0.4" d="M16.023 9.67083C15.638 10.0467 15.418 10.5875 15.473 11.165C15.5555 12.155 16.463 12.8792 17.453 12.8792H19.2497V14.2083C19.2497 16.9583 17.4163 18.7917 14.6663 18.7917H6.41634C3.66634 18.7917 1.83301 16.9583 1.83301 14.2083V7.79166C1.83301 5.29833 3.33634 3.55666 5.67384 3.26333C5.91217 3.22666 6.15967 3.20833 6.41634 3.20833H14.6663C14.9047 3.20833 15.1338 3.21749 15.3538 3.25416C17.7188 3.52916 19.2497 5.27999 19.2497 7.79166V9.12083H17.343C16.8297 9.12083 16.3622 9.3225 16.023 9.67083Z" fill="white"/>
<path d="M20.1665 10.0558V11.9442C20.1665 12.4483 19.7632 12.8608 19.2499 12.8792H17.4532C16.4632 12.8792 15.5557 12.155 15.4732 11.165C15.4182 10.5875 15.6382 10.0467 16.0232 9.67083C16.3624 9.3225 16.8299 9.12083 17.3432 9.12083H19.2499C19.7632 9.13917 20.1665 9.55167 20.1665 10.0558Z" fill="white"/>
</svg>
