<svg width="22" height="22" viewBox="0 0 22 22" fill="none" xmlns="http://www.w3.org/2000/svg">
<path opacity="0.4" d="M8.25 6.60001V15.3908C8.25 18.3333 10.0833 20.1667 13.0167 20.1667H15.3908C18.3242 20.1667 20.1575 18.3333 20.1575 15.4V6.60001C20.1667 3.66668 18.3333 1.83334 15.4 1.83334H13.0167C10.0833 1.83334 8.25 3.66668 8.25 6.60001Z" fill="white"/>
<path d="M5.10615 7.44334L2.03531 10.5142C1.76948 10.78 1.76948 11.22 2.03531 11.4858L5.10615 14.5567C5.37198 14.8225 5.81198 14.8225 6.07781 14.5567C6.34365 14.2908 6.34365 13.8508 6.07781 13.585L4.18031 11.6875H13.9795C14.3553 11.6875 14.667 11.3758 14.667 11C14.667 10.6242 14.3553 10.3125 13.9795 10.3125H4.18031L6.07781 8.41501C6.21531 8.27751 6.27948 8.10334 6.27948 7.92917C6.27948 7.75501 6.21531 7.57167 6.07781 7.44334C5.81198 7.16834 5.38115 7.16834 5.10615 7.44334Z" fill="white"/>
</svg>
