<svg width="22" height="22" viewBox="0 0 22 22" fill="none" xmlns="http://www.w3.org/2000/svg">
<path opacity="0.4" d="M15.583 7.10416C15.4088 7.10416 15.2347 7.04 15.0972 6.9025C14.9693 6.77312 14.8976 6.59856 14.8976 6.41666C14.8976 6.23477 14.9693 6.0602 15.0972 5.93083L16.9763 4.05166C15.363 2.67666 13.2822 1.83333 10.9997 1.83333C5.93967 1.83333 1.83301 5.94 1.83301 11C1.83301 16.06 5.93967 20.1667 10.9997 20.1667C16.0597 20.1667 20.1663 16.06 20.1663 11C20.1663 8.7175 19.323 6.63666 17.948 5.02333L16.0688 6.9025C15.9313 7.04 15.7572 7.10416 15.583 7.10416Z" fill="white"/>
<path d="M12.6038 10.835L11.6872 10.5142V8.47917H11.7605C12.228 8.47917 12.6038 8.89167 12.6038 9.39583C12.6038 9.77167 12.9155 10.0833 13.2913 10.0833C13.6672 10.0833 13.9788 9.77167 13.9788 9.39583C13.9788 8.13083 12.9888 7.10417 11.7605 7.10417H11.6872V6.875C11.6872 6.49917 11.3755 6.1875 10.9997 6.1875C10.6238 6.1875 10.3122 6.49917 10.3122 6.875V7.10417H10.0372C8.92801 7.10417 8.02051 8.03917 8.02051 9.19417C8.02051 10.5325 8.79967 10.9633 9.39551 11.1742L10.3122 11.495V13.53H10.2388C9.77134 13.53 9.39551 13.1175 9.39551 12.6133C9.39551 12.2375 9.08384 11.9258 8.70801 11.9258C8.33217 11.9258 8.02051 12.2375 8.02051 12.6133C8.02051 13.8783 9.01051 14.905 10.2388 14.905H10.3122V15.1342C10.3122 15.51 10.6238 15.8217 10.9997 15.8217C11.3755 15.8217 11.6872 15.51 11.6872 15.1342V14.905H11.9622C13.0713 14.905 13.9788 13.97 13.9788 12.815C13.9788 11.4675 13.1997 11.0367 12.6038 10.835ZM9.84467 9.86333C9.53301 9.75333 9.39551 9.68917 9.39551 9.185C9.39551 8.79083 9.68884 8.47 10.0372 8.47H10.3122V10.0192L9.84467 9.86333ZM11.9622 13.5208H11.6872V11.9717L12.1547 12.1367C12.4663 12.2467 12.6038 12.3108 12.6038 12.815C12.6038 13.2 12.3105 13.5208 11.9622 13.5208ZM20.797 1.56567C20.7245 1.39686 20.59 1.26232 20.4212 1.18983C20.3374 1.1532 20.2468 1.13447 20.1553 1.13483H16.4887C16.1128 1.13483 15.8012 1.4465 15.8012 1.82233C15.8012 2.19817 16.1128 2.50983 16.4887 2.50983H18.4962L16.9653 4.04067C17.3137 4.34317 17.6345 4.664 17.937 5.01233L19.4678 3.4815V5.49817C19.4678 5.874 19.7795 6.18567 20.1553 6.18567C20.5312 6.18567 20.8428 5.874 20.8428 5.49817V1.8315C20.852 1.73983 20.8337 1.65733 20.797 1.56567Z" fill="white"/>
</svg>
