<svg width="44" height="45" viewBox="0 0 44 45" fill="none" xmlns="http://www.w3.org/2000/svg">
<path opacity="0.4" d="M29.682 4.16666H14.3187C7.64533 4.16666 3.66699 8.14499 3.66699 14.8183V30.1633C3.66699 36.855 7.64533 40.8333 14.3187 40.8333H29.6637C36.337 40.8333 40.3153 36.855 40.3153 30.1817V14.8183C40.3337 8.14499 36.3553 4.16666 29.682 4.16666Z" fill="white"/>
<path d="M19.397 29.067C19.0325 29.0667 18.683 28.9216 18.4253 28.6637L13.237 23.4753C12.9813 23.2166 12.8379 22.8674 12.8379 22.5037C12.8379 22.1399 12.9813 21.7907 13.237 21.532C13.7687 21.0003 14.6487 21.0003 15.1803 21.532L19.397 25.7487L28.8203 16.3253C29.352 15.7937 30.232 15.7937 30.7637 16.3253C31.2953 16.857 31.2953 17.737 30.7637 18.2687L20.3687 28.6637C20.1111 28.9216 19.7616 29.0667 19.397 29.067Z" fill="white"/>
</svg>
