<svg width="107" height="45" viewBox="0 0 107 45" fill="none" xmlns="http://www.w3.org/2000/svg">
<path d="M0.904465 0C0.664667 0.000362899 0.434768 0.13178 0.265205 0.365422C0.0956425 0.599063 0.00026337 0.915844 0 1.24626V43.7537C0.00026337 44.0842 0.0956425 44.4009 0.265205 44.6346C0.434768 44.8682 0.664667 44.9996 0.904465 45H106.096C106.335 44.9996 106.565 44.8682 106.735 44.6346C106.904 44.4009 107 44.0842 107 43.7537V1.24626C107 0.915844 106.904 0.599063 106.735 0.365422C106.565 0.13178 106.335 0.000362899 106.096 0H0.904465Z" fill="#E6E6E6"/>
<path d="M2.2666 41.8773H104.734V3.1228H2.2666V41.8773Z" fill="white"/>
<path d="M46.784 28.192C45.824 28.192 45.008 28.0213 44.336 27.68C43.6747 27.3387 43.104 26.8907 42.624 26.336L44.048 24.96C44.432 25.408 44.8587 25.7493 45.328 25.984C45.808 26.2187 46.336 26.336 46.912 26.336C47.5627 26.336 48.0533 26.1973 48.384 25.92C48.7147 25.632 48.88 25.248 48.88 24.768C48.88 24.3947 48.7733 24.0907 48.56 23.856C48.3467 23.6213 47.9467 23.4507 47.36 23.344L46.304 23.184C44.0747 22.832 42.96 21.7493 42.96 19.936C42.96 19.4347 43.0507 18.9813 43.232 18.576C43.424 18.1707 43.696 17.824 44.048 17.536C44.4 17.248 44.8213 17.0293 45.312 16.88C45.8133 16.72 46.3787 16.64 47.008 16.64C47.8507 16.64 48.5867 16.7787 49.216 17.056C49.8453 17.3333 50.384 17.744 50.832 18.288L49.392 19.648C49.1147 19.3067 48.7787 19.0293 48.384 18.816C47.9893 18.6027 47.4933 18.496 46.896 18.496C46.288 18.496 45.8293 18.6133 45.52 18.848C45.2213 19.072 45.072 19.392 45.072 19.808C45.072 20.2347 45.1947 20.5493 45.44 20.752C45.6853 20.9547 46.08 21.104 46.624 21.2L47.664 21.392C48.7947 21.5947 49.6267 21.9573 50.16 22.48C50.704 22.992 50.976 23.712 50.976 24.64C50.976 25.1733 50.88 25.6587 50.688 26.096C50.5067 26.5227 50.2347 26.896 49.872 27.216C49.52 27.5253 49.0827 27.7653 48.56 27.936C48.048 28.1067 47.456 28.192 46.784 28.192ZM53.9893 18.432C53.5626 18.432 53.2533 18.336 53.0613 18.144C52.8799 17.952 52.7893 17.7067 52.7893 17.408V17.088C52.7893 16.7893 52.8799 16.544 53.0613 16.352C53.2533 16.16 53.5626 16.064 53.9893 16.064C54.4053 16.064 54.7093 16.16 54.9013 16.352C55.0933 16.544 55.1893 16.7893 55.1893 17.088V17.408C55.1893 17.7067 55.0933 17.952 54.9013 18.144C54.7093 18.336 54.4053 18.432 53.9893 18.432ZM52.9653 19.648H55.0133V28H52.9653V19.648ZM64.9231 28.704C64.9231 29.1413 64.8431 29.5253 64.6831 29.856C64.5338 30.1973 64.2831 30.48 63.9311 30.704C63.5791 30.928 63.1258 31.0987 62.5711 31.216C62.0165 31.3333 61.3391 31.392 60.5391 31.392C59.8351 31.392 59.2378 31.344 58.7471 31.248C58.2565 31.1627 57.8511 31.0347 57.5311 30.864C57.2218 30.704 56.9978 30.5013 56.8591 30.256C56.7205 30.0107 56.6511 29.7333 56.6511 29.424C56.6511 28.9547 56.7791 28.5867 57.0351 28.32C57.3018 28.064 57.6698 27.8987 58.1391 27.824V27.648C57.7978 27.5627 57.5311 27.3973 57.3391 27.152C57.1578 26.896 57.0671 26.5973 57.0671 26.256C57.0671 26.0427 57.1098 25.856 57.1951 25.696C57.2805 25.5253 57.3925 25.3813 57.5311 25.264C57.6805 25.1467 57.8458 25.0507 58.0271 24.976C58.2085 24.8907 58.4005 24.8267 58.6031 24.784V24.72C58.0911 24.4853 57.7071 24.16 57.4511 23.744C57.2058 23.328 57.0831 22.8427 57.0831 22.288C57.0831 21.4347 57.3765 20.752 57.9631 20.24C58.5498 19.7173 59.4085 19.456 60.5391 19.456C60.7951 19.456 61.0458 19.472 61.2911 19.504C61.5471 19.536 61.7818 19.5893 61.9951 19.664V19.392C61.9951 18.5813 62.3898 18.176 63.1791 18.176H64.4751V19.744H62.6991V19.968C63.1365 20.2133 63.4618 20.5333 63.6751 20.928C63.8885 21.3227 63.9951 21.776 63.9951 22.288C63.9951 23.1307 63.7018 23.808 63.1151 24.32C62.5391 24.832 61.6805 25.088 60.5391 25.088C60.0485 25.088 59.6218 25.04 59.2591 24.944C59.0991 25.0187 58.9605 25.12 58.8431 25.248C58.7258 25.3653 58.6671 25.5147 58.6671 25.696C58.6671 26.112 59.0298 26.32 59.7551 26.32H61.9951C63.0191 26.32 63.7605 26.5333 64.2191 26.96C64.6885 27.376 64.9231 27.9573 64.9231 28.704ZM63.0031 28.944C63.0031 28.6773 62.8965 28.4693 62.6831 28.32C62.4698 28.1707 62.1018 28.096 61.5791 28.096H58.7311C58.4431 28.3093 58.2991 28.5973 58.2991 28.96C58.2991 29.28 58.4325 29.5307 58.6991 29.712C58.9658 29.8933 59.4191 29.984 60.0591 29.984H61.0831C61.7551 29.984 62.2405 29.8987 62.5391 29.728C62.8485 29.5573 63.0031 29.296 63.0031 28.944ZM60.5391 23.696C61.5418 23.696 62.0431 23.2693 62.0431 22.416V22.144C62.0431 21.2907 61.5418 20.864 60.5391 20.864C59.5365 20.864 59.0351 21.2907 59.0351 22.144V22.416C59.0351 23.2693 59.5365 23.696 60.5391 23.696ZM66.1059 28V19.648H68.1539V21.04H68.2339C68.4045 20.592 68.6712 20.2187 69.0339 19.92C69.4072 19.6107 69.9192 19.456 70.5699 19.456C71.4339 19.456 72.0952 19.7387 72.5539 20.304C73.0125 20.8693 73.2419 21.6747 73.2419 22.72V28H71.1939V22.928C71.1939 22.3307 71.0872 21.8827 70.8739 21.584C70.6605 21.2853 70.3085 21.136 69.8179 21.136C69.6045 21.136 69.3965 21.168 69.1939 21.232C69.0019 21.2853 68.8259 21.3707 68.6659 21.488C68.5165 21.5947 68.3939 21.7333 68.2979 21.904C68.2019 22.064 68.1539 22.256 68.1539 22.48V28H66.1059ZM80.3174 18.432C79.8907 18.432 79.5814 18.336 79.3894 18.144C79.208 17.952 79.1174 17.7067 79.1174 17.408V17.088C79.1174 16.7893 79.208 16.544 79.3894 16.352C79.5814 16.16 79.8907 16.064 80.3174 16.064C80.7334 16.064 81.0374 16.16 81.2294 16.352C81.4214 16.544 81.5174 16.7893 81.5174 17.088V17.408C81.5174 17.7067 81.4214 17.952 81.2294 18.144C81.0374 18.336 80.7334 18.432 80.3174 18.432ZM79.2934 19.648H81.3414V28H79.2934V19.648ZM83.7153 28V19.648H85.7633V21.04H85.8433C86.0139 20.592 86.2806 20.2187 86.6432 19.92C87.0166 19.6107 87.5286 19.456 88.1793 19.456C89.0433 19.456 89.7046 19.7387 90.1633 20.304C90.6219 20.8693 90.8513 21.6747 90.8513 22.72V28H88.8033V22.928C88.8033 22.3307 88.6966 21.8827 88.4833 21.584C88.2699 21.2853 87.9179 21.136 87.4273 21.136C87.2139 21.136 87.0059 21.168 86.8033 21.232C86.6113 21.2853 86.4353 21.3707 86.2753 21.488C86.1259 21.5947 86.0033 21.7333 85.9073 21.904C85.8113 22.064 85.7633 22.256 85.7633 22.48V28H83.7153Z" fill="black"/>
<path d="M32.6607 20.2C32.7562 20.2 32.8386 20.2674 32.8553 20.3614C32.949 20.8872 33 21.453 33 22C33 24.3056 32.1329 26.4088 30.707 28.0013C30.6358 28.0807 30.5145 28.0877 30.4331 28.0188L27.9875 25.9488C27.8983 25.8734 27.8928 25.7382 27.9717 25.6522C28.4586 25.1215 28.8409 24.4931 29.0864 23.8H24.2C24.0895 23.8 24 23.7105 24 23.6V20.4C24 20.2895 24.0895 20.2 24.2 20.2H32.6607Z" fill="black"/>
<path d="M26.4726 26.8001C26.5462 26.7619 26.6358 26.7706 26.6991 26.8241L29.2667 28.9969C29.3642 29.0794 29.3605 29.231 29.2569 29.3057C27.7779 30.3719 25.9622 31 23.9999 31C20.838 31 18.0567 29.3691 16.4514 26.9027C16.3954 26.8166 16.4162 26.7022 16.4976 26.6395L19.0429 24.6784C19.1409 24.6029 19.2831 24.6338 19.346 24.7404C20.2854 26.3321 22.018 27.4 23.9999 27.4C24.8918 27.4 25.7323 27.1834 26.4726 26.8001Z" fill="black"/>
<path d="M18.6791 22.9261C18.692 23.0009 18.6636 23.0771 18.6035 23.1234L15.8689 25.2304C15.7642 25.311 15.6114 25.2698 15.5652 25.1459C15.1998 24.1666 15 23.1066 15 22C15 20.8475 15.2167 19.7455 15.6115 18.7326C15.6584 18.6123 15.8066 18.5715 15.9107 18.6479L18.6428 20.6515C18.7078 20.6992 18.7375 20.7812 18.7206 20.8601C18.6416 21.2275 18.6 21.6089 18.6 22C18.6 22.3158 18.6271 22.6252 18.6791 22.9261Z" fill="black"/>
<path d="M19.1473 19.1613C19.2431 19.2316 19.3786 19.203 19.4424 19.1027C20.401 17.5981 22.0841 16.6 24.0001 16.6C25.3088 16.6 26.5053 17.0694 27.4395 17.8446C27.521 17.9123 27.641 17.909 27.7159 17.8341L29.9817 15.5684C30.0618 15.4883 30.0596 15.3577 29.9751 15.2824C28.3854 13.8667 26.2962 13 24.0001 13C20.8802 13 18.1309 14.5878 16.5163 16.9993C16.4576 17.087 16.4797 17.205 16.5648 17.2674L19.1473 19.1613Z" fill="black"/>
</svg>
